<svg xmlns="http://www.w3.org/2000/svg" xmlns:xlink="http://www.w3.org/1999/xlink" width="240" zoomAndPan="magnify" viewBox="0 0 180 113.249998" height="151" preserveAspectRatio="xMidYMid meet" version="1.0"><defs><g/></defs><g fill="#ffffff" fill-opacity="1"><g transform="translate(38.302326, 58.186624)"><g><path d="M 0.890625 0 L 0.828125 -1.0625 L 2.109375 -1.40625 C 2.128906 -1.457031 2.144531 -1.628906 2.15625 -1.921875 C 2.175781 -2.222656 2.191406 -2.609375 2.203125 -3.078125 C 2.222656 -3.554688 2.234375 -4.085938 2.234375 -4.671875 L 2.25 -7.796875 C 2.25 -8.390625 2.238281 -8.921875 2.21875 -9.390625 C 2.207031 -9.867188 2.195312 -10.253906 2.1875 -10.546875 C 2.175781 -10.835938 2.15625 -11.003906 2.125 -11.046875 L 0.78125 -11.40625 L 0.84375 -12.46875 L 7.171875 -12.46875 C 7.472656 -12.46875 7.828125 -12.46875 8.234375 -12.46875 C 8.648438 -12.476562 9.054688 -12.492188 9.453125 -12.515625 C 9.847656 -12.535156 10.164062 -12.554688 10.40625 -12.578125 L 11 -9.4375 L 9.765625 -9.265625 L 8.9375 -11.125 C 8.769531 -11.164062 8.609375 -11.191406 8.453125 -11.203125 C 8.304688 -11.222656 8.148438 -11.234375 7.984375 -11.234375 L 6.390625 -11.234375 C 6.148438 -11.234375 5.910156 -11.222656 5.671875 -11.203125 C 5.441406 -11.179688 5.25 -11.15625 5.09375 -11.125 C 5.09375 -11.0625 5.085938 -10.984375 5.078125 -10.890625 C 5.078125 -10.796875 5.078125 -10.660156 5.078125 -10.484375 C 5.078125 -10.316406 5.078125 -10.078125 5.078125 -9.765625 C 5.078125 -9.453125 5.078125 -9.039062 5.078125 -8.53125 L 5.09375 -3.625 C 5.09375 -3.363281 5.097656 -3.066406 5.109375 -2.734375 C 5.128906 -2.410156 5.148438 -2.117188 5.171875 -1.859375 C 5.191406 -1.609375 5.207031 -1.457031 5.21875 -1.40625 L 6.953125 -1.109375 L 6.875 0 Z M 8.171875 -4.015625 L 7.96875 -5.515625 C 7.789062 -5.546875 7.597656 -5.566406 7.390625 -5.578125 C 7.179688 -5.597656 6.96875 -5.609375 6.75 -5.609375 L 5.546875 -5.609375 C 5.285156 -5.609375 5.050781 -5.597656 4.84375 -5.578125 C 4.644531 -5.554688 4.460938 -5.535156 4.296875 -5.515625 L 4.296875 -7.03125 C 4.453125 -7.019531 4.640625 -7.003906 4.859375 -6.984375 C 5.078125 -6.972656 5.304688 -6.96875 5.546875 -6.96875 L 6.75 -6.96875 C 7.03125 -6.96875 7.28125 -6.972656 7.5 -6.984375 C 7.726562 -7.003906 7.882812 -7.015625 7.96875 -7.015625 L 8.171875 -8.40625 L 9.40625 -8.40625 L 9.40625 -4.015625 Z M 8.171875 -4.015625 "/></g></g><g transform="translate(49.751525, 58.186624)"><g><path d="M 0.890625 0 L 0.828125 -1.0625 L 2.1875 -1.421875 C 2.1875 -1.503906 2.1875 -1.664062 2.1875 -1.90625 C 2.195312 -2.144531 2.207031 -2.425781 2.21875 -2.75 C 2.226562 -3.082031 2.234375 -3.414062 2.234375 -3.75 C 2.242188 -4.09375 2.25 -4.398438 2.25 -4.671875 L 2.25 -7.78125 C 2.25 -8.375 2.238281 -8.90625 2.21875 -9.375 C 2.207031 -9.851562 2.191406 -10.238281 2.171875 -10.53125 C 2.148438 -10.832031 2.128906 -11.007812 2.109375 -11.0625 L 0.75 -11.40625 L 0.8125 -12.46875 L 6.3125 -12.46875 C 7.9375 -12.46875 9.140625 -12.207031 9.921875 -11.6875 C 10.703125 -11.175781 11.09375 -10.359375 11.09375 -9.234375 C 11.09375 -8.546875 10.878906 -7.925781 10.453125 -7.375 C 10.023438 -6.832031 9.4375 -6.40625 8.6875 -6.09375 C 7.945312 -5.78125 7.097656 -5.625 6.140625 -5.625 L 4.765625 -5.625 L 4.765625 -6.859375 L 5.71875 -6.859375 C 6.425781 -6.859375 6.992188 -7.070312 7.421875 -7.5 C 7.859375 -7.9375 8.078125 -8.515625 8.078125 -9.234375 C 8.078125 -9.898438 7.894531 -10.40625 7.53125 -10.75 C 7.164062 -11.101562 6.640625 -11.28125 5.953125 -11.28125 L 5.140625 -11.28125 C 5.128906 -11.238281 5.117188 -11.117188 5.109375 -10.921875 C 5.097656 -10.722656 5.09375 -10.46875 5.09375 -10.15625 C 5.09375 -9.851562 5.09375 -9.515625 5.09375 -9.140625 C 5.09375 -8.765625 5.09375 -8.363281 5.09375 -7.9375 L 5.09375 -4.671875 C 5.09375 -4.304688 5.097656 -3.898438 5.109375 -3.453125 C 5.117188 -3.015625 5.128906 -2.609375 5.140625 -2.234375 C 5.148438 -1.859375 5.164062 -1.585938 5.1875 -1.421875 L 6.375 -1.0625 L 6.3125 0 Z M 11.984375 0.25 C 11.191406 0.25 10.484375 0.125 9.859375 -0.125 C 9.242188 -0.382812 8.691406 -0.78125 8.203125 -1.3125 C 7.722656 -1.851562 7.289062 -2.535156 6.90625 -3.359375 L 5.6875 -5.96875 L 8.046875 -6.515625 L 10.578125 -3 C 10.878906 -2.582031 11.171875 -2.234375 11.453125 -1.953125 C 11.734375 -1.671875 12.03125 -1.441406 12.34375 -1.265625 C 12.65625 -1.085938 12.988281 -0.945312 13.34375 -0.84375 L 13.3125 0.125 C 13.09375 0.164062 12.867188 0.195312 12.640625 0.21875 C 12.421875 0.238281 12.203125 0.25 11.984375 0.25 Z M 11.984375 0.25 "/></g></g><g transform="translate(63.027498, 58.186624)"><g><path d="M 7.640625 0.1875 C 6.335938 0.1875 5.179688 -0.078125 4.171875 -0.609375 C 3.160156 -1.148438 2.367188 -1.890625 1.796875 -2.828125 C 1.222656 -3.773438 0.9375 -4.859375 0.9375 -6.078125 C 0.9375 -7.347656 1.222656 -8.476562 1.796875 -9.46875 C 2.367188 -10.457031 3.164062 -11.234375 4.1875 -11.796875 C 5.207031 -12.367188 6.367188 -12.65625 7.671875 -12.65625 C 8.929688 -12.65625 10.039062 -12.390625 11 -11.859375 C 11.96875 -11.328125 12.726562 -10.59375 13.28125 -9.65625 C 13.832031 -8.726562 14.109375 -7.640625 14.109375 -6.390625 C 14.109375 -5.304688 13.90625 -4.351562 13.5 -3.53125 C 13.09375 -2.707031 12.566406 -2.019531 11.921875 -1.46875 C 11.273438 -0.914062 10.578125 -0.5 9.828125 -0.21875 C 9.078125 0.0507812 8.347656 0.1875 7.640625 0.1875 Z M 7.8125 -1.40625 C 8.46875 -1.40625 9.015625 -1.578125 9.453125 -1.921875 C 9.890625 -2.265625 10.21875 -2.769531 10.4375 -3.4375 C 10.65625 -4.101562 10.765625 -4.910156 10.765625 -5.859375 C 10.765625 -6.953125 10.625 -7.898438 10.34375 -8.703125 C 10.0625 -9.515625 9.671875 -10.140625 9.171875 -10.578125 C 8.679688 -11.023438 8.09375 -11.25 7.40625 -11.25 C 6.4375 -11.25 5.675781 -10.847656 5.125 -10.046875 C 4.570312 -9.242188 4.296875 -8.125 4.296875 -6.6875 C 4.296875 -5.644531 4.445312 -4.722656 4.75 -3.921875 C 5.050781 -3.128906 5.460938 -2.507812 5.984375 -2.0625 C 6.515625 -1.625 7.125 -1.40625 7.8125 -1.40625 Z M 7.8125 -1.40625 "/></g></g><g transform="translate(78.066521, 58.186624)"><g><path d="M 11.03125 -3.921875 L 11.03125 -7.171875 C 11.03125 -7.867188 11.023438 -8.492188 11.015625 -9.046875 C 11.003906 -9.609375 10.988281 -10.066406 10.96875 -10.421875 C 10.945312 -10.773438 10.921875 -10.988281 10.890625 -11.0625 L 9.40625 -11.40625 L 9.46875 -12.46875 L 14 -12.46875 L 14.0625 -11.40625 L 12.703125 -11.0625 C 12.691406 -10.988281 12.671875 -10.78125 12.640625 -10.4375 C 12.617188 -10.09375 12.601562 -9.632812 12.59375 -9.0625 C 12.582031 -8.5 12.578125 -7.867188 12.578125 -7.171875 L 12.578125 -3.140625 C 12.578125 -2.472656 12.578125 -1.890625 12.578125 -1.390625 C 12.578125 -0.890625 12.578125 -0.390625 12.578125 0.109375 L 11.28125 0.109375 L 2.734375 -9.765625 L 3.859375 -9.765625 L 3.859375 -5.546875 C 3.859375 -4.773438 3.863281 -4.097656 3.875 -3.515625 C 3.894531 -2.929688 3.914062 -2.457031 3.9375 -2.09375 C 3.957031 -1.726562 3.988281 -1.5 4.03125 -1.40625 L 5.5 -1.0625 L 5.4375 0 L 0.84375 0 L 0.78125 -1.0625 L 2.125 -1.40625 C 2.15625 -1.5 2.179688 -1.734375 2.203125 -2.109375 C 2.222656 -2.484375 2.238281 -2.972656 2.25 -3.578125 C 2.257812 -4.179688 2.265625 -4.835938 2.265625 -5.546875 L 2.265625 -8.375 C 2.265625 -8.75 2.253906 -9.128906 2.234375 -9.515625 C 2.210938 -9.898438 2.191406 -10.234375 2.171875 -10.515625 C 2.148438 -10.796875 2.132812 -10.976562 2.125 -11.0625 L 0.78125 -11.40625 L 0.84375 -12.46875 L 4.203125 -12.46875 L 11.890625 -3.921875 Z M 11.03125 -3.921875 "/></g></g><g transform="translate(92.893128, 58.186624)"><g><path d="M 12.171875 -12.578125 L 12.65625 -8.8125 L 11.34375 -8.703125 L 10.5 -11.15625 C 10.351562 -11.175781 10.203125 -11.191406 10.046875 -11.203125 C 9.890625 -11.210938 9.71875 -11.21875 9.53125 -11.21875 L 8.8125 -11.21875 C 8.6875 -11.21875 8.539062 -11.21875 8.375 -11.21875 C 8.21875 -11.21875 8.09375 -11.203125 8 -11.171875 C 8 -11.085938 7.992188 -10.828125 7.984375 -10.390625 C 7.984375 -9.953125 7.976562 -9.425781 7.96875 -8.8125 C 7.96875 -8.207031 7.96875 -7.59375 7.96875 -6.96875 L 7.96875 -4.984375 C 7.96875 -4.191406 7.972656 -3.476562 7.984375 -2.84375 C 7.992188 -2.207031 8.007812 -1.726562 8.03125 -1.40625 L 9.875 -1.109375 L 9.8125 0 L 3.203125 0 L 3.140625 -1.109375 L 4.984375 -1.40625 C 5.003906 -1.726562 5.019531 -2.207031 5.03125 -2.84375 C 5.050781 -3.476562 5.0625 -4.191406 5.0625 -4.984375 L 5.0625 -6.96875 C 5.0625 -7.59375 5.054688 -8.207031 5.046875 -8.8125 C 5.035156 -9.425781 5.03125 -9.953125 5.03125 -10.390625 C 5.03125 -10.828125 5.023438 -11.085938 5.015625 -11.171875 C 4.929688 -11.203125 4.804688 -11.21875 4.640625 -11.21875 C 4.472656 -11.21875 4.328125 -11.21875 4.203125 -11.21875 L 3.46875 -11.21875 C 3.289062 -11.21875 3.113281 -11.210938 2.9375 -11.203125 C 2.757812 -11.191406 2.601562 -11.175781 2.46875 -11.15625 L 1.65625 -8.671875 L 0.34375 -8.796875 L 0.78125 -12.578125 C 0.925781 -12.578125 1.128906 -12.566406 1.390625 -12.546875 C 1.648438 -12.535156 1.925781 -12.519531 2.21875 -12.5 C 2.507812 -12.488281 2.789062 -12.476562 3.0625 -12.46875 C 3.34375 -12.46875 3.582031 -12.46875 3.78125 -12.46875 L 9.171875 -12.46875 C 9.367188 -12.46875 9.601562 -12.46875 9.875 -12.46875 C 10.144531 -12.476562 10.425781 -12.488281 10.71875 -12.5 C 11.019531 -12.519531 11.296875 -12.535156 11.546875 -12.546875 C 11.804688 -12.566406 12.015625 -12.578125 12.171875 -12.578125 Z M 12.171875 -12.578125 "/></g></g><g transform="translate(105.914202, 58.186624)"><g><path d="M 0.8125 0 L 0.75 -1.0625 L 2.078125 -1.40625 C 2.109375 -1.476562 2.132812 -1.660156 2.15625 -1.953125 C 2.175781 -2.253906 2.191406 -2.640625 2.203125 -3.109375 C 2.222656 -3.585938 2.234375 -4.109375 2.234375 -4.671875 L 2.234375 -7.78125 C 2.234375 -8.375 2.222656 -8.90625 2.203125 -9.375 C 2.191406 -9.851562 2.175781 -10.242188 2.15625 -10.546875 C 2.132812 -10.847656 2.109375 -11.019531 2.078125 -11.0625 L 0.75 -11.40625 L 0.8125 -12.46875 L 6.515625 -12.46875 L 6.578125 -11.40625 L 5.21875 -11.0625 C 5.195312 -11.007812 5.175781 -10.828125 5.15625 -10.515625 C 5.132812 -10.210938 5.117188 -9.820312 5.109375 -9.34375 C 5.097656 -8.875 5.09375 -8.351562 5.09375 -7.78125 L 5.09375 -4.671875 C 5.09375 -4.117188 5.097656 -3.609375 5.109375 -3.140625 C 5.117188 -2.671875 5.132812 -2.285156 5.15625 -1.984375 C 5.175781 -1.679688 5.195312 -1.488281 5.21875 -1.40625 L 6.578125 -1.0625 L 6.515625 0 Z M 0.8125 0 "/></g></g><g transform="translate(113.242539, 58.186624)"><g><path d="M 11.046875 0.125 C 10.648438 0.09375 10.171875 0.0625 9.609375 0.03125 C 9.046875 0.0078125 8.539062 0 8.09375 0 L 0.78125 0 L 0.71875 -1.0625 L 2.078125 -1.40625 C 2.109375 -1.476562 2.132812 -1.660156 2.15625 -1.953125 C 2.175781 -2.253906 2.191406 -2.640625 2.203125 -3.109375 C 2.222656 -3.585938 2.234375 -4.109375 2.234375 -4.671875 L 2.234375 -7.78125 C 2.234375 -8.375 2.222656 -8.90625 2.203125 -9.375 C 2.191406 -9.851562 2.175781 -10.238281 2.15625 -10.53125 C 2.132812 -10.832031 2.109375 -11.007812 2.078125 -11.0625 L 0.71875 -11.40625 L 0.78125 -12.46875 L 7.328125 -12.46875 C 7.609375 -12.46875 7.953125 -12.46875 8.359375 -12.46875 C 8.765625 -12.476562 9.160156 -12.492188 9.546875 -12.515625 C 9.929688 -12.535156 10.257812 -12.554688 10.53125 -12.578125 L 11.109375 -9.4375 L 9.875 -9.265625 L 9.09375 -11.125 C 8.90625 -11.164062 8.738281 -11.191406 8.59375 -11.203125 C 8.445312 -11.222656 8.285156 -11.234375 8.109375 -11.234375 L 6.5 -11.234375 C 6.226562 -11.234375 5.96875 -11.226562 5.71875 -11.21875 C 5.476562 -11.21875 5.28125 -11.203125 5.125 -11.171875 C 5.125 -11.054688 5.117188 -10.882812 5.109375 -10.65625 C 5.097656 -10.4375 5.085938 -10.148438 5.078125 -9.796875 C 5.078125 -9.441406 5.078125 -9.019531 5.078125 -8.53125 L 5.078125 -4.078125 C 5.078125 -3.628906 5.078125 -3.226562 5.078125 -2.875 C 5.085938 -2.519531 5.097656 -2.222656 5.109375 -1.984375 C 5.117188 -1.753906 5.125 -1.570312 5.125 -1.4375 C 5.375 -1.394531 5.640625 -1.367188 5.921875 -1.359375 C 6.203125 -1.347656 6.554688 -1.34375 6.984375 -1.34375 L 8.109375 -1.34375 C 8.484375 -1.34375 8.757812 -1.34375 8.9375 -1.34375 C 9.113281 -1.351562 9.242188 -1.363281 9.328125 -1.375 C 9.421875 -1.394531 9.519531 -1.410156 9.625 -1.421875 L 10.796875 -3.546875 L 12 -3.3125 Z M 8.34375 -4.25 L 8.140625 -5.671875 C 8.035156 -5.679688 7.875 -5.691406 7.65625 -5.703125 C 7.445312 -5.710938 7.203125 -5.71875 6.921875 -5.71875 L 5.796875 -5.71875 C 5.554688 -5.71875 5.328125 -5.707031 5.109375 -5.6875 C 4.890625 -5.675781 4.722656 -5.664062 4.609375 -5.65625 L 4.609375 -7.15625 C 4.722656 -7.144531 4.890625 -7.128906 5.109375 -7.109375 C 5.328125 -7.097656 5.554688 -7.09375 5.796875 -7.09375 L 6.921875 -7.09375 C 7.203125 -7.09375 7.445312 -7.09375 7.65625 -7.09375 C 7.875 -7.101562 8.035156 -7.109375 8.140625 -7.109375 L 8.34375 -8.53125 L 9.515625 -8.53125 L 9.515625 -4.25 Z M 8.34375 -4.25 "/></g></g><g transform="translate(125.605126, 58.186624)"><g><path d="M 0.890625 0 L 0.828125 -1.0625 L 2.1875 -1.421875 C 2.1875 -1.503906 2.1875 -1.664062 2.1875 -1.90625 C 2.195312 -2.144531 2.207031 -2.425781 2.21875 -2.75 C 2.226562 -3.082031 2.234375 -3.414062 2.234375 -3.75 C 2.242188 -4.09375 2.25 -4.398438 2.25 -4.671875 L 2.25 -7.78125 C 2.25 -8.375 2.238281 -8.90625 2.21875 -9.375 C 2.207031 -9.851562 2.191406 -10.238281 2.171875 -10.53125 C 2.148438 -10.832031 2.128906 -11.007812 2.109375 -11.0625 L 0.75 -11.40625 L 0.8125 -12.46875 L 6.3125 -12.46875 C 7.9375 -12.46875 9.140625 -12.207031 9.921875 -11.6875 C 10.703125 -11.175781 11.09375 -10.359375 11.09375 -9.234375 C 11.09375 -8.546875 10.878906 -7.925781 10.453125 -7.375 C 10.023438 -6.832031 9.4375 -6.40625 8.6875 -6.09375 C 7.945312 -5.78125 7.097656 -5.625 6.140625 -5.625 L 4.765625 -5.625 L 4.765625 -6.859375 L 5.71875 -6.859375 C 6.425781 -6.859375 6.992188 -7.070312 7.421875 -7.5 C 7.859375 -7.9375 8.078125 -8.515625 8.078125 -9.234375 C 8.078125 -9.898438 7.894531 -10.40625 7.53125 -10.75 C 7.164062 -11.101562 6.640625 -11.28125 5.953125 -11.28125 L 5.140625 -11.28125 C 5.128906 -11.238281 5.117188 -11.117188 5.109375 -10.921875 C 5.097656 -10.722656 5.09375 -10.46875 5.09375 -10.15625 C 5.09375 -9.851562 5.09375 -9.515625 5.09375 -9.140625 C 5.09375 -8.765625 5.09375 -8.363281 5.09375 -7.9375 L 5.09375 -4.671875 C 5.09375 -4.304688 5.097656 -3.898438 5.109375 -3.453125 C 5.117188 -3.015625 5.128906 -2.609375 5.140625 -2.234375 C 5.148438 -1.859375 5.164062 -1.585938 5.1875 -1.421875 L 6.375 -1.0625 L 6.3125 0 Z M 11.984375 0.25 C 11.191406 0.25 10.484375 0.125 9.859375 -0.125 C 9.242188 -0.382812 8.691406 -0.78125 8.203125 -1.3125 C 7.722656 -1.851562 7.289062 -2.535156 6.90625 -3.359375 L 5.6875 -5.96875 L 8.046875 -6.515625 L 10.578125 -3 C 10.878906 -2.582031 11.171875 -2.234375 11.453125 -1.953125 C 11.734375 -1.671875 12.03125 -1.441406 12.34375 -1.265625 C 12.65625 -1.085938 12.988281 -0.945312 13.34375 -0.84375 L 13.3125 0.125 C 13.09375 0.164062 12.867188 0.195312 12.640625 0.21875 C 12.421875 0.238281 12.203125 0.25 11.984375 0.25 Z M 11.984375 0.25 "/></g></g></g><g fill="#ffffff" fill-opacity="1"><g transform="translate(38.302326, 70.958396)"><g><path d="M 4.109375 -9.75 C 5.171875 -9.75 6.09375 -9.550781 6.875 -9.15625 C 7.65625 -8.757812 8.25 -8.191406 8.65625 -7.453125 C 9.070312 -6.710938 9.28125 -5.847656 9.28125 -4.859375 C 9.28125 -3.859375 9.070312 -2.988281 8.65625 -2.25 C 8.25 -1.519531 7.65625 -0.960938 6.875 -0.578125 C 6.09375 -0.191406 5.171875 0 4.109375 0 L 1.078125 0 L 1.078125 -9.75 Z M 4.109375 -1.046875 C 5.367188 -1.046875 6.328125 -1.378906 6.984375 -2.046875 C 7.648438 -2.710938 7.984375 -3.648438 7.984375 -4.859375 C 7.984375 -6.066406 7.648438 -7.007812 6.984375 -7.6875 C 6.316406 -8.375 5.359375 -8.71875 4.109375 -8.71875 L 2.34375 -8.71875 L 2.34375 -1.046875 Z M 4.109375 -1.046875 "/></g></g></g><g fill="#ffffff" fill-opacity="1"><g transform="translate(48.191625, 70.958396)"><g><path d="M 2.34375 -8.71875 L 2.34375 -5.453125 L 5.90625 -5.453125 L 5.90625 -4.40625 L 2.34375 -4.40625 L 2.34375 -1.046875 L 6.328125 -1.046875 L 6.328125 0 L 1.078125 0 L 1.078125 -9.765625 L 6.328125 -9.765625 L 6.328125 -8.71875 Z M 2.34375 -8.71875 "/></g></g></g><g fill="#ffffff" fill-opacity="1"><g transform="translate(55.36731, 70.958396)"><g><path d="M 6.203125 0 L 3.890625 -3.984375 L 2.34375 -3.984375 L 2.34375 0 L 1.078125 0 L 1.078125 -9.75 L 4.21875 -9.75 C 4.957031 -9.75 5.582031 -9.617188 6.09375 -9.359375 C 6.601562 -9.109375 6.984375 -8.769531 7.234375 -8.34375 C 7.484375 -7.914062 7.609375 -7.425781 7.609375 -6.875 C 7.609375 -6.207031 7.414062 -5.613281 7.03125 -5.09375 C 6.644531 -4.582031 6.0625 -4.242188 5.28125 -4.078125 L 7.734375 0 Z M 2.34375 -5 L 4.21875 -5 C 4.914062 -5 5.4375 -5.171875 5.78125 -5.515625 C 6.125 -5.859375 6.296875 -6.3125 6.296875 -6.875 C 6.296875 -7.457031 6.125 -7.90625 5.78125 -8.21875 C 5.4375 -8.539062 4.914062 -8.703125 4.21875 -8.703125 L 2.34375 -8.703125 Z M 2.34375 -5 "/></g></g></g><g fill="#ffffff" fill-opacity="1"><g transform="translate(63.871828, 70.958396)"><g><path d="M 10.96875 -9.671875 L 10.96875 0 L 9.6875 0 L 9.6875 -7.21875 L 6.46875 0 L 5.578125 0 L 2.34375 -7.234375 L 2.34375 0 L 1.078125 0 L 1.078125 -9.671875 L 2.453125 -9.671875 L 6.03125 -1.671875 L 9.609375 -9.671875 Z M 10.96875 -9.671875 "/></g></g></g><g fill="#ffffff" fill-opacity="1"><g transform="translate(75.915232, 70.958396)"><g><path d="M 6.84375 -2.171875 L 2.59375 -2.171875 L 1.796875 0 L 0.46875 0 L 3.984375 -9.6875 L 5.453125 -9.6875 L 8.96875 0 L 7.625 0 Z M 6.46875 -3.203125 L 4.71875 -8.125 L 2.953125 -3.203125 Z M 6.46875 -3.203125 "/></g></g></g><g fill="#ffffff" fill-opacity="1"><g transform="translate(85.342938, 70.958396)"><g><path d="M 7.078125 -9.75 L 7.078125 -8.71875 L 4.421875 -8.71875 L 4.421875 0 L 3.140625 0 L 3.140625 -8.71875 L 0.46875 -8.71875 L 0.46875 -9.75 Z M 7.078125 -9.75 "/></g></g></g><g fill="#ffffff" fill-opacity="1"><g transform="translate(92.91028, 70.958396)"><g><path d="M 5.5 0.09375 C 4.59375 0.09375 3.765625 -0.113281 3.015625 -0.53125 C 2.273438 -0.957031 1.6875 -1.550781 1.25 -2.3125 C 0.8125 -3.070312 0.59375 -3.925781 0.59375 -4.875 C 0.59375 -5.832031 0.8125 -6.691406 1.25 -7.453125 C 1.6875 -8.210938 2.273438 -8.800781 3.015625 -9.21875 C 3.765625 -9.644531 4.59375 -9.859375 5.5 -9.859375 C 6.40625 -9.859375 7.234375 -9.644531 7.984375 -9.21875 C 8.734375 -8.800781 9.320312 -8.210938 9.75 -7.453125 C 10.175781 -6.703125 10.390625 -5.84375 10.390625 -4.875 C 10.390625 -3.914062 10.175781 -3.054688 9.75 -2.296875 C 9.320312 -1.546875 8.734375 -0.957031 7.984375 -0.53125 C 7.234375 -0.113281 6.40625 0.09375 5.5 0.09375 Z M 5.5 -1 C 6.175781 -1 6.785156 -1.15625 7.328125 -1.46875 C 7.878906 -1.789062 8.3125 -2.242188 8.625 -2.828125 C 8.9375 -3.421875 9.09375 -4.101562 9.09375 -4.875 C 9.09375 -5.664062 8.9375 -6.347656 8.625 -6.921875 C 8.3125 -7.503906 7.882812 -7.953125 7.34375 -8.265625 C 6.800781 -8.585938 6.1875 -8.75 5.5 -8.75 C 4.8125 -8.75 4.195312 -8.585938 3.65625 -8.265625 C 3.113281 -7.953125 2.6875 -7.503906 2.375 -6.921875 C 2.0625 -6.347656 1.90625 -5.664062 1.90625 -4.875 C 1.90625 -4.101562 2.0625 -3.421875 2.375 -2.828125 C 2.6875 -2.242188 3.113281 -1.789062 3.65625 -1.46875 C 4.195312 -1.15625 4.8125 -1 5.5 -1 Z M 5.5 -1 "/></g></g></g><g fill="#ffffff" fill-opacity="1"><g transform="translate(103.904606, 70.958396)"><g><path d="M 2.34375 -1.03125 L 5.765625 -1.03125 L 5.765625 0 L 1.078125 0 L 1.078125 -9.75 L 2.34375 -9.75 Z M 2.34375 -1.03125 "/></g></g></g><g fill="#ffffff" fill-opacity="1"><g transform="translate(109.947294, 70.958396)"><g><path d="M 5.5 0.09375 C 4.59375 0.09375 3.765625 -0.113281 3.015625 -0.53125 C 2.273438 -0.957031 1.6875 -1.550781 1.25 -2.3125 C 0.8125 -3.070312 0.59375 -3.925781 0.59375 -4.875 C 0.59375 -5.832031 0.8125 -6.691406 1.25 -7.453125 C 1.6875 -8.210938 2.273438 -8.800781 3.015625 -9.21875 C 3.765625 -9.644531 4.59375 -9.859375 5.5 -9.859375 C 6.40625 -9.859375 7.234375 -9.644531 7.984375 -9.21875 C 8.734375 -8.800781 9.320312 -8.210938 9.75 -7.453125 C 10.175781 -6.703125 10.390625 -5.84375 10.390625 -4.875 C 10.390625 -3.914062 10.175781 -3.054688 9.75 -2.296875 C 9.320312 -1.546875 8.734375 -0.957031 7.984375 -0.53125 C 7.234375 -0.113281 6.40625 0.09375 5.5 0.09375 Z M 5.5 -1 C 6.175781 -1 6.785156 -1.15625 7.328125 -1.46875 C 7.878906 -1.789062 8.3125 -2.242188 8.625 -2.828125 C 8.9375 -3.421875 9.09375 -4.101562 9.09375 -4.875 C 9.09375 -5.664062 8.9375 -6.347656 8.625 -6.921875 C 8.3125 -7.503906 7.882812 -7.953125 7.34375 -8.265625 C 6.800781 -8.585938 6.1875 -8.75 5.5 -8.75 C 4.8125 -8.75 4.195312 -8.585938 3.65625 -8.265625 C 3.113281 -7.953125 2.6875 -7.503906 2.375 -6.921875 C 2.0625 -6.347656 1.90625 -5.664062 1.90625 -4.875 C 1.90625 -4.101562 2.0625 -3.421875 2.375 -2.828125 C 2.6875 -2.242188 3.113281 -1.789062 3.65625 -1.46875 C 4.195312 -1.15625 4.8125 -1 5.5 -1 Z M 5.5 -1 "/></g></g></g><g fill="#ffffff" fill-opacity="1"><g transform="translate(120.941621, 70.958396)"><g><path d="M 8.453125 -6.921875 C 8.191406 -7.492188 7.800781 -7.9375 7.28125 -8.25 C 6.769531 -8.5625 6.175781 -8.71875 5.5 -8.71875 C 4.8125 -8.71875 4.195312 -8.5625 3.65625 -8.25 C 3.113281 -7.9375 2.6875 -7.488281 2.375 -6.90625 C 2.0625 -6.320312 1.90625 -5.644531 1.90625 -4.875 C 1.90625 -4.113281 2.0625 -3.441406 2.375 -2.859375 C 2.6875 -2.285156 3.113281 -1.84375 3.65625 -1.53125 C 4.195312 -1.21875 4.8125 -1.0625 5.5 -1.0625 C 6.445312 -1.0625 7.226562 -1.34375 7.84375 -1.90625 C 8.457031 -2.476562 8.816406 -3.25 8.921875 -4.21875 L 5.03125 -4.21875 L 5.03125 -5.265625 L 10.28125 -5.265625 L 10.28125 -4.28125 C 10.207031 -3.476562 9.953125 -2.742188 9.515625 -2.078125 C 9.085938 -1.410156 8.523438 -0.882812 7.828125 -0.5 C 7.128906 -0.113281 6.351562 0.078125 5.5 0.078125 C 4.59375 0.078125 3.765625 -0.128906 3.015625 -0.546875 C 2.273438 -0.972656 1.6875 -1.5625 1.25 -2.3125 C 0.8125 -3.070312 0.59375 -3.925781 0.59375 -4.875 C 0.59375 -5.832031 0.8125 -6.691406 1.25 -7.453125 C 1.6875 -8.210938 2.273438 -8.800781 3.015625 -9.21875 C 3.765625 -9.644531 4.59375 -9.859375 5.5 -9.859375 C 6.53125 -9.859375 7.441406 -9.601562 8.234375 -9.09375 C 9.035156 -8.582031 9.617188 -7.859375 9.984375 -6.921875 Z M 8.453125 -6.921875 "/></g></g></g><g fill="#ffffff" fill-opacity="1"><g transform="translate(131.824041, 70.958396)"><g><path d="M 7.90625 -9.75 L 4.734375 -3.671875 L 4.734375 0 L 3.453125 0 L 3.453125 -3.671875 L 0.265625 -9.75 L 1.671875 -9.75 L 4.078125 -4.8125 L 6.484375 -9.75 Z M 7.90625 -9.75 "/></g></g></g></svg>